<svg id="svg" xmlns="http://www.w3.org/2000/svg" xmlns:xlink="http://www.w3.org/1999/xlink" width="400" height="400" viewBox="0, 0, 400,400"><g id="svgg"><path id="path0" d="M180.078 0.509 C 57.151 13.726,-24.606 131.499,6.201 250.981 C 33.575 357.147,143.772 421.442,250.981 393.799 C 357.147 366.425,421.442 256.228,393.799 149.019 C 374.270 73.278,311.095 15.798,232.465 2.230 C 223.308 0.650,189.192 -0.471,180.078 0.509 M214.956 37.528 C 348.745 50.914,410.803 210.602,320.617 309.413 C 225.172 413.986,51.649 356.087,37.528 214.956 C 27.527 114.998,114.998 27.527,214.956 37.528 M194.324 85.179 C 171.301 90.961,169.021 123.735,191.068 131.984 C 211.240 139.531,230.296 120.207,222.700 99.906 C 218.732 89.299,205.423 82.392,194.324 85.179 M191.488 171.590 C 186.479 174.086,183.224 178.301,182.022 183.847 C 180.338 191.620,181.314 301.339,183.097 304.688 C 190.691 318.946,209.309 318.946,216.903 304.688 C 218.686 301.339,219.662 191.620,217.978 183.847 C 216.137 175.352,208.827 169.531,200.000 169.531 C 196.833 169.531,194.474 170.102,191.488 171.590 " stroke="none" fill="#fff" fill-rule="evenodd"></path></g></svg>