<svg id="svg" xmlns="http://www.w3.org/2000/svg" xmlns:xlink="http://www.w3.org/1999/xlink" width="400" height="400" viewBox="0, 0, 400,400"><g id="svgg"><path id="path0" d="M176.172 0.866 C 93.868 10.736,25.169 71.441,5.478 151.697 C -3.051 186.459,-1.676 227.565,9.147 261.328 C 49.249 386.439,199.324 439.813,309.216 368.047 C 320.400 360.743,322.286 357.543,318.788 351.806 C 315.493 346.402,311.155 346.817,301.172 353.490 C 178.150 435.728,12.849 343.662,16.612 195.001 C 20.012 60.659,162.463 -24.609,282.422 35.894 C 380.846 85.535,414.486 210.292,353.804 300.618 C 346.833 310.994,346.342 315.456,351.806 318.788 C 357.494 322.256,360.767 320.373,367.766 309.606 C 442.414 194.771,382.070 39.337,249.825 5.815 C 229.820 0.744,196.088 -1.523,176.172 0.866 M263.672 101.898 C 262.383 102.489,241.643 122.693,217.582 146.797 L 173.837 190.622 155.864 172.692 C 145.979 162.830,136.924 154.402,135.743 153.963 C 131.158 152.258,130.109 153.084,104.999 178.204 L 80.859 202.353 80.859 205.861 L 80.859 209.370 124.609 253.200 C 169.747 298.421,171.514 299.976,176.044 298.479 C 177.748 297.916,200.354 275.823,248.828 227.345 L 319.141 157.028 319.141 153.516 L 319.141 150.003 294.922 125.852 C 269.237 100.240,268.509 99.681,263.672 101.898 M236.528 216.206 L 173.833 278.905 137.309 242.387 L 100.785 205.869 116.980 189.660 L 133.175 173.452 151.586 191.804 L 169.997 210.156 173.851 210.156 L 177.706 210.156 222.251 165.631 L 266.796 121.106 283.010 137.307 L 299.224 153.507 236.528 216.206 M333.849 327.891 C 329.985 328.636,327.096 333.508,327.930 337.872 C 329.029 343.621,337.151 345.873,341.559 341.651 C 345.563 337.815,343.464 328.125,338.629 328.125 C 338.078 328.125,337.160 327.999,336.587 327.844 C 336.015 327.690,334.783 327.710,333.849 327.891 " stroke="none" fill="#fff" fill-rule="evenodd"></path></g></svg>