<svg id="svg" xmlns="http://www.w3.org/2000/svg" xmlns:xlink="http://www.w3.org/1999/xlink" width="400" height="400" viewBox="0, 0, 400,400"><g id="svgg"><path id="path0" d="M137.327 9.699 C 125.232 13.968,119.055 21.731,108.992 45.313 C 100.529 65.143,102.082 64.046,79.674 66.017 C 35.091 69.938,25.362 83.583,35.605 127.823 C 40.579 149.306,41.340 146.797,25.812 160.130 C 6.258 176.920,0.751 184.990,0.141 197.744 C -0.587 212.960,3.969 220.560,24.890 239.027 C 40.905 253.165,40.296 251.166,35.017 272.266 C 28.203 299.496,30.827 314.123,44.366 324.380 C 52.357 330.435,59.517 332.238,85.267 334.684 C 101.882 336.263,101.061 335.557,109.433 355.469 C 126.688 396.508,144.349 402.044,182.581 378.395 C 200.233 367.477,198.974 367.482,216.966 378.273 C 239.836 391.990,248.709 394.480,261.051 390.645 C 274.025 386.613,280.149 379.132,290.947 354.124 C 299.361 334.637,297.704 335.837,318.750 333.983 C 364.265 329.975,374.840 315.625,364.409 272.027 C 359.435 251.237,358.997 252.899,372.504 241.294 C 394.947 222.009,399.983 214.442,399.983 200.000 C 399.983 186.563,394.706 177.983,377.547 163.525 C 358.361 147.357,359.354 149.985,364.454 128.906 C 375.100 84.904,364.884 70.770,319.250 66.367 C 297.348 64.254,299.235 65.678,290.231 44.464 C 273.048 3.977,256.092 -1.267,217.578 21.994 C 199.038 33.191,200.756 33.215,182.031 21.485 C 160.808 8.190,149.814 5.291,137.327 9.699 M163.281 49.944 C 193.791 69.101,204.716 69.588,232.039 53.013 C 244.105 45.693,250.163 42.222,250.910 42.202 C 251.779 42.178,255.012 48.481,258.948 57.874 C 273.380 92.316,279.977 97.028,318.359 100.318 C 325.664 100.944,332.256 101.694,333.008 101.984 C 335.256 102.851,335.084 105.521,331.923 118.750 C 323.084 155.745,325.606 164.014,352.785 187.137 C 358.006 191.579,363.227 196.342,364.388 197.722 L 366.499 200.230 363.523 203.326 C 361.886 205.029,355.752 210.587,349.892 215.677 C 326.266 236.200,323.342 246.512,331.486 280.600 C 333.504 289.050,335.156 296.310,335.156 296.733 C 335.156 297.964,328.686 299.103,314.453 300.378 C 281.112 303.365,272.549 309.446,260.529 338.672 C 255.183 351.671,252.136 357.813,251.032 357.813 C 249.484 357.813,244.616 355.233,235.316 349.485 C 204.717 330.571,195.162 330.831,161.295 351.504 C 154.907 355.403,149.450 358.594,149.168 358.594 C 148.294 358.594,144.128 350.125,139.023 337.972 C 126.692 308.615,118.976 303.470,82.624 300.368 C 61.959 298.605,63.216 300.468,68.343 279.202 C 76.684 244.604,73.585 235.654,44.780 211.157 C 30.905 199.357,30.842 200.658,45.922 187.750 C 74.543 163.252,77.157 155.291,68.420 119.225 C 66.453 111.107,64.844 104.002,64.844 103.435 C 64.844 101.842,69.598 100.909,84.290 99.617 C 118.759 96.585,127.025 90.718,139.517 60.419 C 141.082 56.622,143.596 50.804,145.105 47.490 L 147.847 41.465 150.681 42.639 C 152.240 43.284,157.910 46.572,163.281 49.944 M255.680 135.188 C 253.033 136.532,244.866 145.859,214.664 182.027 L 176.953 227.187 160.156 210.497 C 142.398 192.852,140.383 191.393,133.814 191.423 C 121.721 191.479,113.578 204.290,118.678 215.234 C 121.876 222.096,169.263 267.677,174.219 268.658 C 179.020 269.608,182.853 269.000,186.885 266.649 C 189.632 265.047,274.323 164.561,277.894 158.666 C 286.314 144.768,270.248 127.789,255.680 135.188 " stroke="none" fill="#fff" fill-rule="evenodd"></path></g></svg>