<svg id="svg" xmlns="http://www.w3.org/2000/svg" xmlns:xlink="http://www.w3.org/1999/xlink" width="400" height="400" viewBox="0, 0, 400,400"><g id="svgg"><path id="path0" d="M51.685 1.615 C 16.053 6.292,-3.415 46.048,14.601 77.344 C 16.976 81.471,28.135 93.068,74.182 139.266 L 130.840 196.109 70.598 256.453 C 11.094 316.058,7.353 320.059,3.969 327.734 C -15.152 371.090,30.568 414.184,73.438 393.214 C 79.058 390.465,81.804 387.847,140.820 328.980 L 202.343 267.611 260.742 325.812 C 303.437 368.362,320.331 384.706,323.567 386.593 C 369.120 413.151,419.567 362.215,392.879 316.608 C 390.939 313.294,374.972 296.779,332.244 253.892 L 274.243 195.675 327.779 142.173 C 383.938 86.050,385.622 84.170,389.329 73.472 C 404.258 30.382,359.996 -8.294,318.750 11.801 C 312.117 15.032,312.043 15.102,257.412 69.620 L 202.714 124.203 148.427 69.868 C 118.570 39.984,92.031 13.920,89.453 11.950 C 78.650 3.693,64.775 -0.104,51.685 1.615 " stroke="none" fill="#fff" fill-rule="evenodd"></path></g></svg>