<svg id="svg" xmlns="http://www.w3.org/2000/svg" xmlns:xlink="http://www.w3.org/1999/xlink" width="400" height="400" viewBox="0, 0, 400,400"><g id="svgg"><path id="path0" d="M180.469 0.485 C 74.306 13.112,0.391 95.005,0.391 200.000 C 0.391 312.934,87.066 399.609,200.000 399.609 C 331.273 399.609,425.468 279.478,394.426 151.650 C 375.586 74.069,312.730 16.080,232.465 2.230 C 223.396 0.665,188.736 -0.498,180.469 0.485 M216.406 21.935 C 350.561 34.416,423.680 186.614,349.281 298.516 C 266.603 422.871,76.472 397.353,30.134 255.682 C -9.729 133.804,88.874 10.070,216.406 21.935 M131.563 97.576 C 127.991 100.228,98.465 129.961,96.591 132.791 C 95.128 135.002,94.901 140.695,96.176 143.215 C 96.650 144.154,109.390 157.312,124.487 172.456 L 151.935 199.990 123.624 228.340 L 95.313 256.690 95.313 260.984 C 95.312 266.595,95.175 266.413,113.193 284.651 C 131.515 303.197,133.364 304.688,138.059 304.687 C 143.239 304.687,142.913 304.964,172.456 275.513 L 199.990 248.065 228.340 276.376 L 256.690 304.687 261.040 304.688 C 266.775 304.688,267.803 303.888,286.807 284.651 C 304.338 266.906,304.688 266.461,304.688 261.884 C 304.687 256.770,304.919 257.042,275.513 227.544 L 248.065 200.010 276.376 171.660 L 304.688 143.310 304.688 139.016 C 304.688 133.405,304.825 133.587,286.807 115.349 C 268.485 96.803,266.636 95.312,261.941 95.313 C 256.761 95.313,257.087 95.036,227.544 124.487 L 200.010 151.935 171.660 123.624 L 143.310 95.313 138.960 95.313 C 135.383 95.313,134.068 95.715,131.563 97.576 M197.076 177.391 C 203.280 179.104,203.609 178.846,233.586 148.848 L 261.312 121.102 270.108 129.873 L 278.905 138.645 250.858 166.783 C 229.216 188.496,222.693 195.487,222.295 197.396 C 221.053 203.355,221.653 204.109,251.152 233.586 L 278.898 261.312 270.127 270.108 L 261.355 278.905 233.217 250.836 C 202.810 220.506,202.867 220.550,196.730 222.575 C 194.927 223.170,185.712 231.861,166.414 251.164 L 138.688 278.898 129.892 270.127 L 121.095 261.355 149.164 233.217 C 179.494 202.810,179.450 202.867,177.425 196.730 C 176.830 194.927,168.139 185.712,148.836 166.414 L 121.102 138.688 129.878 129.887 L 138.655 121.085 166.416 148.838 C 188.731 171.146,194.746 176.748,197.076 177.391 " stroke="none" fill="#fff" fill-rule="evenodd"></path></g></svg>