<svg id="svg" xmlns="http://www.w3.org/2000/svg" xmlns:xlink="http://www.w3.org/1999/xlink" width="400" height="400" viewBox="0, 0, 400,400"><g id="svgg"><path id="path0" d="M189.063 12.545 C 65.844 19.371,-17.248 142.109,21.860 259.527 C 62.570 381.754,212.281 427.364,314.869 348.793 C 362.525 312.294,388.685 256.604,387.300 194.600 C 386.804 172.368,386.144 170.312,379.498 170.312 C 373.712 170.313,373.855 169.653,373.808 196.609 C 373.756 226.526,371.480 240.267,362.975 262.019 C 311.291 394.201,132.876 414.086,54.981 296.346 C -38.641 154.834,105.431 -23.549,263.907 37.666 C 274.177 41.633,278.906 40.579,278.906 34.324 C 278.906 22.672,228.188 10.377,189.063 12.545 M332.031 47.143 C 323.048 50.323,320.978 52.243,249.209 123.914 C 204.569 168.494,177.942 194.531,176.995 194.531 C 176.090 194.531,168.814 187.933,158.646 177.889 C 137.022 156.531,132.540 153.906,117.685 153.906 C 86.030 153.906,67.217 187.870,83.932 214.844 C 86.772 219.427,150.885 283.541,155.469 286.381 C 168.194 294.266,185.682 294.268,198.438 286.387 C 204.333 282.745,376.677 109.801,379.507 104.688 C 397.226 72.671,366.188 35.052,332.031 47.143 " stroke="none" fill="#fff" fill-rule="evenodd"></path></g></svg>