<svg id="svg" xmlns="http://www.w3.org/2000/svg" xmlns:xlink="http://www.w3.org/1999/xlink" width="400" height="400" viewBox="0, 0, 400,400"><g id="svgg"><path id="path0" d="M193.359 17.266 C 172.263 18.909,153.437 29.953,141.310 47.801 C 137.583 53.285,11.828 270.939,8.008 278.516 C -15.705 325.550,14.138 378.527,66.797 382.877 C 84.280 384.321,336.862 383.358,342.969 381.823 C 389.572 370.116,413.893 320.702,393.106 279.956 C 390.248 274.354,260.973 50.723,258.592 47.263 C 244.180 26.316,219.988 15.191,193.359 17.266 M213.362 52.260 C 218.988 54.410,225.242 58.826,228.974 63.281 C 232.526 67.524,361.971 291.404,364.673 297.979 C 373.094 318.472,358.730 344.577,336.500 349.181 C 333.646 349.772,291.849 349.963,197.266 349.818 L 62.109 349.609 57.022 347.452 C 38.456 339.580,27.818 316.256,34.846 298.828 C 36.652 294.351,163.090 75.050,168.571 66.889 C 178.379 52.285,197.279 46.113,213.362 52.260 M193.359 129.809 C 182.704 133.786,178.389 142.163,179.161 157.374 C 180.604 185.770,184.462 248.268,184.855 249.609 C 188.618 262.457,207.542 263.986,213.873 251.953 C 215.562 248.742,221.432 152.548,220.320 146.309 C 218.101 133.871,204.606 125.612,193.359 129.809 M195.703 274.364 C 171.626 278.817,175.604 315.584,200.166 315.621 C 223.474 315.656,227.842 278.466,204.985 274.596 C 203.317 274.313,201.426 273.983,200.781 273.862 C 200.137 273.740,197.852 273.966,195.703 274.364 " stroke="none" fill="#fff" fill-rule="evenodd"></path></g></svg>