<svg id="svg" xmlns="http://www.w3.org/2000/svg" xmlns:xlink="http://www.w3.org/1999/xlink" width="400" height="400" viewBox="0, 0, 400,400"><g id="svgg"><path id="path0" d="M6.510 5.501 C -0.938 7.789,-2.430 19.073,4.212 22.883 C 5.324 23.521,12.335 23.963,25.781 24.243 C 48.209 24.711,50.167 25.167,56.371 31.371 C 60.786 35.786,59.873 33.259,91.481 128.547 L 121.095 217.821 118.690 223.168 C 106.440 250.402,117.956 278.395,144.922 286.939 L 150.391 288.672 244.922 288.672 L 339.453 288.672 341.936 286.901 C 347.232 283.123,347.201 275.293,341.872 271.094 C 340.576 270.072,328.290 269.872,245.779 269.531 C 151.645 269.143,151.154 269.132,147.617 267.496 C 140.237 264.081,134.385 256.203,133.160 248.033 C 132.222 241.779,136.773 228.125,139.795 228.125 C 145.092 228.125,336.501 207.582,340.270 206.609 C 357.271 202.221,370.266 190.176,376.226 173.285 C 378.380 167.180,400.000 75.164,400.000 72.102 C 400.000 67.953,396.270 64.387,391.244 63.730 C 389.400 63.489,320.742 62.385,238.672 61.275 C 156.602 60.166,89.240 59.021,88.980 58.731 C 88.720 58.441,86.845 52.930,84.814 46.484 C 76.916 21.428,68.587 11.512,51.172 6.431 C 46.435 5.048,10.424 4.299,6.510 5.501 M249.523 80.849 C 319.945 81.906,377.733 82.942,377.942 83.151 C 378.299 83.508,360.668 157.323,358.097 166.233 C 355.490 175.269,347.085 184.113,338.281 187.084 C 334.146 188.480,139.008 208.876,138.201 207.998 C 137.727 207.482,115.882 141.648,101.134 96.289 L 95.482 78.906 108.483 78.917 C 115.634 78.922,179.102 79.792,249.523 80.849 M116.902 312.129 C 85.343 320.098,74.877 361.433,98.827 383.510 C 126.823 409.315,171.224 388.703,169.328 350.781 C 167.989 323.995,142.967 305.547,116.902 312.129 M293.183 312.140 C 268.847 318.695,255.303 345.996,264.983 368.987 C 280.807 406.571,335.573 401.939,344.938 362.225 C 352.060 332.024,323.168 304.064,293.183 312.140 M135.317 331.683 C 147.186 335.727,153.528 350.539,148.226 361.830 C 140.474 378.338,119.146 380.261,108.889 365.377 C 96.697 347.685,114.746 324.674,135.317 331.683 M313.909 332.859 C 335.103 343.450,327.595 375.321,303.906 375.321 C 292.056 375.321,282.241 366.293,281.396 354.616 C 280.137 337.204,298.291 325.055,313.909 332.859 " stroke="none" fill="#000000" fill-rule="evenodd"></path></g></svg>