<svg id="svg" xmlns="http://www.w3.org/2000/svg" xmlns:xlink="http://www.w3.org/1999/xlink" width="400" height="400" viewBox="0, 0, 400,400"><g id="svgg"><path id="path0" d="M119.233 1.226 C 30.936 16.078,-21.219 102.825,7.708 186.719 C 37.125 272.033,142.861 307.447,217.427 256.959 L 223.525 252.829 234.220 263.524 C 243.608 272.912,244.797 274.385,243.951 275.586 C 240.692 280.215,240.248 281.737,240.248 288.281 C 240.248 297.848,238.370 295.629,291.290 348.597 C 343.971 401.325,342.376 399.966,351.563 399.966 C 359.911 399.966,361.760 398.707,379.964 380.631 C 398.448 362.277,399.991 360.035,399.975 351.563 C 399.958 342.369,401.312 343.957,348.597 291.290 C 295.629 238.370,297.848 240.248,288.281 240.248 C 281.737 240.248,280.215 240.692,275.586 243.951 C 274.385 244.797,272.912 243.608,263.524 234.220 L 252.829 223.525 256.959 217.427 C 297.554 157.470,283.429 72.827,225.455 28.653 C 195.659 5.950,154.434 -4.695,119.233 1.226 M156.477 41.790 C 219.488 52.778,256.354 119.188,231.964 177.774 C 223.893 197.162,201.504 220.594,182.422 229.624 C 125.675 256.478,59.680 225.329,43.518 164.063 C 25.595 96.123,86.984 29.672,156.477 41.790 " stroke="none" fill="#000000" fill-rule="evenodd"></path></g></svg>