<svg id="svg" xmlns="http://www.w3.org/2000/svg" xmlns:xlink="http://www.w3.org/1999/xlink" width="400" height="400" viewBox="0, 0, 400,400"><g id="svgg"><path id="path0" d="M124.219 0.527 C 50.885 12.329,2.173 65.641,0.216 136.240 C -2.937 250.048,121.247 320.440,217.052 259.150 L 221.995 255.988 230.676 264.669 L 239.358 273.351 235.694 277.267 C 232.517 280.664,232.031 281.624,232.031 284.511 L 232.031 287.840 283.398 339.322 C 344.509 400.569,343.782 400.000,360.938 400.000 C 387.760 400.000,406.376 374.715,398.449 349.049 C 395.616 339.877,392.861 336.817,339.322 283.398 L 287.840 232.031 284.511 232.031 C 281.624 232.031,280.664 232.517,277.267 235.694 L 273.351 239.358 264.725 230.732 L 256.099 222.106 261.372 213.323 C 313.114 127.157,260.644 16.148,161.108 1.198 C 153.775 0.096,129.624 -0.343,124.219 0.527 M161.194 17.946 C 260.699 34.957,299.767 157.197,228.482 228.482 C 157.159 299.805,34.966 260.752,17.946 161.194 C 3.680 77.746,77.746 3.680,161.194 17.946 M126.563 31.727 C 104.358 35.757,90.000 41.612,75.000 52.752 C 15.100 97.238,17.179 189.964,79.006 231.433 C 152.496 280.724,249.609 229.033,249.609 140.625 C 249.609 87.689,215.007 44.624,163.281 33.185 C 157.603 31.930,131.219 30.882,126.563 31.727 M163.281 50.214 C 225.593 66.629,253.513 138.575,218.298 191.985 C 175.595 256.751,77.347 243.454,52.078 169.489 C 28.861 101.530,93.775 31.905,163.281 50.214 M126.869 63.350 C 107.972 66.511,89.036 78.255,77.474 93.985 C 71.075 102.690,65.058 116.070,66.094 119.290 C 67.635 124.082,69.828 125.781,74.472 125.781 C 78.460 125.781,80.084 124.008,84.678 114.637 C 95.075 93.426,112.440 81.355,136.040 78.933 C 146.284 77.882,148.370 76.413,148.413 70.224 C 148.463 62.940,141.879 60.839,126.869 63.350 M67.354 141.793 C 62.215 144.044,61.352 151.363,65.786 155.093 C 73.371 161.476,83.515 151.052,76.758 143.819 C 74.140 141.016,70.778 140.292,67.354 141.793 M256.460 256.432 L 251.206 261.726 243.184 253.732 L 235.162 245.737 240.415 240.443 L 245.669 235.149 253.691 243.143 L 261.713 251.138 256.460 256.432 M295.126 262.704 L 305.465 273.064 289.247 289.269 L 273.029 305.473 262.500 294.922 L 251.971 284.371 267.971 268.358 C 276.770 259.550,284.154 252.344,284.379 252.344 C 284.603 252.344,289.440 257.006,295.126 262.704 M381.274 351.101 C 388.750 365.980,377.750 383.611,361.008 383.586 C 351.324 383.572,350.946 383.276,316.208 348.600 L 285.150 317.598 301.359 301.376 L 317.567 285.153 348.261 315.819 C 373.715 341.250,379.350 347.272,381.274 351.101 " stroke="none" fill="#000000" fill-rule="evenodd"></path></g></svg>