<svg width="330" height="102" viewBox="0 0 330 102" class="css-1j8o68f"><defs id="SvgjsDefs2109"></defs><g id="SvgjsG2110" featurekey="symbolGroupContainer" transform="matrix(1,0,0,1,0,0)" fill="#9d0208"><rect xmlns="http://www.w3.org/2000/svg" width="110" height="102" rx="10" ry="10"></rect></g><g id="SvgjsG2111" featurekey="symbolFeature-0" transform="matrix(0.546574757518453,0,0,0.546574757518453,20,15.900689318611603)" fill="#ffffff"><path xmlns="http://www.w3.org/2000/svg" d="M71.9,74.2c0.1,0,0.2,0.1,0.3,0.1c0.4,0,0.8-0.3,1-0.7l2.5-7c0.2-0.5-0.1-1.1-0.6-1.3c-0.5-0.2-1.1,0.1-1.3,0.6l-2.5,7  C71.1,73.5,71.4,74,71.9,74.2z"></path><path xmlns="http://www.w3.org/2000/svg" d="M69.5,59.1l-6.6,3.1c-0.5,0.2-0.7,0.9-0.5,1.4c0.2,0.4,0.5,0.6,0.9,0.6c0.1,0,0.3,0,0.4-0.1l6.6-3.1  c0.5-0.2,0.7-0.9,0.5-1.4C70.6,59.1,70,58.9,69.5,59.1z"></path><path xmlns="http://www.w3.org/2000/svg" d="M71.8,52.5c0.2-0.5-0.1-1.1-0.6-1.3l-6.9-2.5c-0.5-0.2-1.1,0.1-1.3,0.6c-0.2,0.5,0.1,1.1,0.6,1.3l6.9,2.5  c0.1,0,0.2,0.1,0.4,0.1C71.3,53.2,71.6,52.9,71.8,52.5z"></path><path xmlns="http://www.w3.org/2000/svg" d="M77,48.3c0.1,0,0.3,0,0.4-0.1c0.5-0.2,0.7-0.9,0.5-1.4l-3.1-6.7c-0.2-0.5-0.9-0.7-1.4-0.5C73,39.8,72.8,40.5,73,41l3.1,6.7  C76.3,48,76.6,48.3,77,48.3z"></path><path xmlns="http://www.w3.org/2000/svg" d="M84.9,49.2c0.4,0,0.8-0.3,1-0.7l2.5-7c0.2-0.5-0.1-1.1-0.6-1.3c-0.5-0.2-1.1,0.1-1.3,0.6l-2.5,7c-0.2,0.5,0.1,1.1,0.6,1.3  C84.6,49.2,84.7,49.2,84.9,49.2z"></path><path xmlns="http://www.w3.org/2000/svg" d="M89.7,55.5c0.1,0,0.3,0,0.4-0.1l6.6-3.1c0.5-0.2,0.7-0.9,0.5-1.4c-0.2-0.5-0.9-0.7-1.4-0.5l-6.6,3.1  c-0.5,0.2-0.7,0.9-0.5,1.4C89,55.2,89.4,55.5,89.7,55.5z"></path><path xmlns="http://www.w3.org/2000/svg" d="M117.5,27.1H30.8c-3-14.1-11.2-15-11.9-15.1h-6.3c-1-2.4-3.3-4.5-6.1-4.5C2.9,7.5,0,10.4,0,14c0,3.6,2.9,6.6,6.5,6.6  c2.8,0,5.1-2.2,6.1-4.6h5.9c0.2,0,5.7,1.7,7.8,13.2c2.7,15.3,9.7,53.7,9.7,53.7c0,4.3,2.6,12.1,12.2,12.1h37l-1.5-3.9H48.1  c-4.1,0-5.9-3-6.7-5.1c6.5-0.4,24.3-1.6,40-2.7L80,78.4c-16,1.1-33.7,2.3-39.4,2.7C39.3,74.6,34.4,47,31.7,32h85.1  c3.9,0,6.7,3.2,6.2,7.1l-3.6,29.4c0,0.1-0.1,0.7-0.5,1.5l4.4,2.2c0.8-1.7,1-2.9,1-3.1l3.7-30.2C128.7,32.4,124.1,27.1,117.5,27.1z"></path><path xmlns="http://www.w3.org/2000/svg" d="M107.7,80.5l8.4-3.3c0.8-0.3,1.3-1,1.3-1.8c0-0.8-0.4-1.6-1.1-2L80.9,55.5c-0.7-0.4-1.6-0.3-2.3,0.3  C78,56.3,77.7,57.2,78,58l12,38.7c0.2,0.8,1,1.4,1.8,1.5c0.8,0.1,1.6-0.4,2-1.1l4.8-9.2l10.3,13.7c0.3,0.4,0.8,0.7,1.4,0.8  c0.1,0,0.2,0,0.3,0c0.4,0,0.9-0.1,1.3-0.4l6.3-4.9c0.4-0.3,0.7-0.8,0.8-1.4c0.1-0.6-0.1-1.1-0.4-1.6L107.7,80.5z M110.9,97.4  l-11-14.6c-0.4-0.5-1-0.8-1.6-0.8c-0.1,0-0.1,0-0.2,0c-0.7,0.1-1.3,0.5-1.7,1.1l-4,7.7l-9.1-29.3l26.9,13.6l-6.6,2.6  c-0.6,0.2-1.1,0.8-1.2,1.4c-0.2,0.6,0,1.3,0.4,1.8l11.2,14.2L110.9,97.4z"></path><path xmlns="http://www.w3.org/2000/svg" d="M99.2,103.7c-4.7,0-8.6,3.9-8.6,8.7c0,4.8,3.9,8.7,8.6,8.7c4.7,0,8.6-3.9,8.6-8.7C107.8,107.6,103.9,103.7,99.2,103.7z   M99.2,116.9c-2.5,0-4.5-2-4.5-4.5c0-2.5,2-4.5,4.5-4.5c2.5,0,4.5,2,4.5,4.5C103.7,114.8,101.7,116.9,99.2,116.9z"></path><path xmlns="http://www.w3.org/2000/svg" d="M49.7,103.7c-4.7,0-8.6,3.9-8.6,8.7c0,4.8,3.9,8.7,8.6,8.7c4.7,0,8.6-3.9,8.6-8.7C58.3,107.6,54.4,103.7,49.7,103.7z   M49.7,116.9c-2.5,0-4.5-2-4.5-4.5c0-2.5,2-4.5,4.5-4.5c2.5,0,4.5,2,4.5,4.5C54.2,114.8,52.2,116.9,49.7,116.9z"></path></g><g id="SvgjsG2112" featurekey="nameFeature-0" transform="matrix(1.4388489208633093,0,0,1.4388489208633093,128.44604310371892,7.7338129496402885)" fill="#f9f8eb"><path d="M1.08 39.4 l0 -5.64 c0.48 0.12 1.08 0.24 1.76 0.32 c0.68 0.12 1.4 0.2 2.16 0.24 s1.52 0.08 2.32 0.12 s1.56 0.08 2.24 0.08 c1.88 0 3.2 -0.12 4 -0.32 c0.76 -0.2 1.16 -0.56 1.16 -1.12 c0 -0.48 -0.36 -0.84 -0.72 -1.12 c-1.32 -0.88 -2.88 -1.24 -4.44 -1.6 c-4.4 -0.88 -8.44 -2.64 -8.44 -7.68 c0 -5.96 5.64 -7.36 10.48 -7.36 c2.68 0 5.4 0.28 8 0.92 l0 5.64 c-0.4 -0.12 -0.92 -0.2 -1.56 -0.32 c-0.68 -0.08 -1.36 -0.16 -2.12 -0.24 c-1.56 -0.16 -3.04 -0.24 -4.6 -0.24 c-0.88 0 -2.72 0 -3.56 0.32 c-0.56 0.2 -0.92 0.44 -0.92 1.08 c0 0.32 0.08 0.6 0.24 0.84 c0.16 0.28 0.44 0.48 0.8 0.68 c1.08 0.6 2.48 0.96 3.68 1.24 c1 0.24 2 0.52 3.04 0.8 c3.52 0.96 5.84 2.92 5.84 6.68 c0 6.2 -6.16 7.52 -11.12 7.52 c-2.72 0 -5.56 -0.2 -8.24 -0.84 z M29.48 30 l0 10 l-6 0 l0 -28 l6 0 l0 9.84 c1.4 -1.48 3.16 -2.04 5.16 -2.04 c5.68 0 9.24 4.88 9.24 10.2 l0 10 l-6 0 l0 -10 c0 -2.72 -1.08 -4.64 -4 -4.64 c-2.88 0 -4.4 1.84 -4.4 4.64 z M57 34.64 c2.92 0 4.6 -1.72 4.6 -4.64 s-1.68 -4.64 -4.6 -4.64 s-4.6 1.72 -4.6 4.64 s1.68 4.64 4.6 4.64 z M57 40.2 c-6.16 0 -10.6 -4.08 -10.6 -10.2 c0 -6.32 4.6 -10.2 10.6 -10.2 c6.2 0 10.6 4.08 10.6 10.2 c0 6.28 -4.64 10.2 -10.6 10.2 z M76.44 30 c0 2.96 1.48 4.64 4.48 4.64 c0.84 0 1.6 -0.12 2.2 -0.4 c1.12 -0.44 1.88 -1.28 2.28 -2.44 c0.16 -0.56 0.24 -1.16 0.24 -1.8 s-0.08 -1.24 -0.24 -1.8 c-0.44 -1.24 -1.12 -1.92 -2.28 -2.48 c-0.6 -0.24 -1.36 -0.36 -2.2 -0.36 c-3 0 -4.48 1.68 -4.48 4.64 z M76.44 38 l0 10 l-6 0 l0 -18 c0 -6.4 4.52 -10.2 10.56 -10.2 c6.16 0 10.64 4.04 10.64 10.16 c0 5.68 -4.28 10.24 -9.96 10.24 c-1.16 0 -2.16 -0.2 -3 -0.6 c-0.88 -0.36 -1.64 -0.92 -2.24 -1.6 z M100.44 30 c0 2.96 1.48 4.64 4.48 4.64 c0.84 0 1.6 -0.12 2.2 -0.4 c1.12 -0.44 1.88 -1.28 2.28 -2.44 c0.16 -0.56 0.24 -1.16 0.24 -1.8 s-0.08 -1.24 -0.24 -1.8 c-0.44 -1.24 -1.12 -1.92 -2.28 -2.48 c-0.6 -0.24 -1.36 -0.36 -2.2 -0.36 c-3 0 -4.48 1.68 -4.48 4.64 z M100.44 38 l0 10 l-6 0 l0 -18 c0 -6.4 4.52 -10.2 10.56 -10.2 c6.16 0 10.64 4.04 10.64 10.16 c0 5.68 -4.28 10.24 -9.96 10.24 c-1.16 0 -2.16 -0.2 -3 -0.6 c-0.88 -0.36 -1.64 -0.92 -2.24 -1.6 z M132.48 30 c-0.16 -2.92 -1.48 -4.64 -4.52 -4.64 c-0.84 0 -1.56 0.12 -2.16 0.36 c-1.84 0.84 -2.52 2.4 -2.52 4.32 c0 0.64 0.08 1.24 0.28 1.76 c0.6 2.08 2.4 2.84 4.4 2.84 c3.04 0 4.52 -1.64 4.52 -4.64 z M140.07999999999998 40 l-6 0 c-0.4 -1 -0.76 -2 -1 -3.04 c-1.36 2.24 -3.44 3.24 -6 3.24 c-5.72 0 -9.8 -4.8 -9.8 -10.28 c0 -6.32 4.72 -10.12 10.68 -10.12 c6.36 0 10.36 4.08 10.52 10.2 c0.04 0.52 0.04 1.12 0.04 1.84 c0 2.8 0.44 5.6 1.56 8.16 z"></path></g></svg>