<svg id="svg" xmlns="http://www.w3.org/2000/svg" xmlns:xlink="http://www.w3.org/1999/xlink" width="400" height="400" viewBox="0, 0, 400,400"><g id="svgg"><path id="path0" d="M10.156 1.211 C -3.675 7.377,-3.567 28.139,10.326 33.943 C 12.555 34.874,16.285 35.160,26.342 35.172 C 47.354 35.197,53.973 36.908,61.266 44.202 C 67.095 50.031,67.664 51.928,90.993 143.359 C 103.272 191.484,113.470 231.287,113.656 231.809 C 113.859 232.382,106.196 237.182,94.323 243.918 C 72.686 256.194,68.057 259.881,63.514 268.462 C 50.884 292.317,62.676 320.936,88.228 328.441 C 95.293 330.516,362.293 330.291,366.797 328.206 C 379.574 322.291,380.042 303.119,367.578 296.219 C 365.427 295.029,354.217 294.890,231.527 294.531 C 81.582 294.093,94.531 294.647,94.531 288.672 C 94.531 285.302,94.318 285.452,118.857 271.580 L 140.449 259.375 190.898 259.375 C 239.704 259.375,241.486 259.323,245.592 257.787 C 253.998 254.642,260.428 248.096,263.025 240.039 L 264.348 235.937 297.994 235.928 C 324.657 235.921,332.511 235.687,335.835 234.803 C 348.953 231.311,359.833 221.085,363.978 208.352 C 367.158 198.584,400.000 68.493,400.000 65.665 C 400.000 59.636,414.207 60.184,251.968 59.963 L 106.788 59.766 104.553 51.172 C 98.046 26.155,83.252 10.007,59.766 2.288 C 52.507 -0.097,14.921 -0.914,10.156 1.211 M53.516 13.701 C 58.701 15.095,68.061 19.423,71.094 21.829 L 73.047 23.378 69.375 27.069 L 65.704 30.760 61.832 28.653 C 53.677 24.214,52.347 23.972,33.479 23.495 C 17.547 23.091,15.623 22.899,14.143 21.559 C 10.973 18.687,12.466 13.437,16.797 12.224 C 20.184 11.274,48.767 12.425,53.516 13.701 M85.036 36.531 C 89.509 43.503,90.684 47.654,114.368 140.215 C 130.126 201.803,138.538 233.364,139.468 234.392 C 140.837 235.904,142.059 235.937,195.824 235.938 C 226.051 235.938,250.780 236.201,250.778 236.523 C 250.770 238.103,247.390 242.341,244.739 244.096 C 239.679 247.444,236.083 247.656,184.361 247.656 L 135.342 247.656 112.398 260.629 C 99.778 267.765,88.442 274.532,87.206 275.668 C 80.417 281.911,80.132 294.066,86.613 301.046 C 91.457 306.264,79.428 305.819,227.067 306.250 C 357.162 306.630,360.818 306.681,362.418 308.129 C 364.597 310.100,364.596 314.118,362.418 316.090 C 360.557 317.774,108.362 318.877,96.601 317.252 C 74.908 314.255,63.907 290.624,75.867 272.713 C 79.629 267.080,81.583 265.727,104.688 252.750 C 124.267 241.753,127.344 239.533,127.344 236.405 C 127.344 231.455,80.395 51.015,77.653 45.427 L 74.834 39.681 78.205 36.247 C 82.353 32.021,82.136 32.012,85.036 36.531 M158.117 91.602 C 159.750 102.451,161.267 112.125,161.490 113.099 L 161.895 114.870 141.366 114.662 L 120.837 114.453 115.917 95.363 C 113.212 84.863,110.781 75.283,110.515 74.074 L 110.032 71.875 132.591 71.875 L 155.149 71.875 158.117 91.602 M213.941 90.039 C 214.451 100.029,214.863 109.697,214.856 111.523 L 214.844 114.844 202.010 114.844 L 189.176 114.844 187.557 116.902 C 186.666 118.034,185.938 119.745,185.938 120.703 C 185.938 121.661,186.666 123.372,187.557 124.504 L 189.176 126.563 202.344 126.563 L 215.513 126.563 215.936 130.664 C 216.169 132.920,216.555 139.512,216.793 145.313 C 217.031 151.113,217.438 158.936,217.698 162.695 L 218.170 169.531 200.553 169.531 L 182.937 169.531 182.502 167.383 C 182.062 165.202,167.969 72.963,167.969 72.258 C 167.969 72.048,178.104 71.875,190.491 71.875 L 213.014 71.875 213.941 90.039 M270.573 75.977 C 269.999 85.072,268.750 109.976,268.750 112.330 L 268.750 114.844 248.189 114.844 L 227.628 114.844 226.691 95.117 C 226.176 84.268,225.761 74.600,225.768 73.633 L 225.781 71.875 248.306 71.875 L 270.832 71.875 270.573 75.977 M328.125 73.107 C 328.125 74.198,323.395 105.743,322.248 112.305 L 321.804 114.844 301.412 114.844 L 281.020 114.844 281.505 106.836 C 281.772 102.432,282.192 93.906,282.440 87.891 C 282.687 81.875,283.063 75.811,283.277 74.414 L 283.665 71.875 305.895 71.875 C 325.617 71.875,328.125 72.014,328.125 73.107 M385.917 72.461 C 385.906 72.783,383.497 82.363,380.564 93.750 L 375.230 114.453 354.872 114.661 C 335.757 114.857,334.533 114.785,334.819 113.489 C 334.986 112.730,336.361 103.848,337.876 93.750 C 339.390 83.652,340.810 74.600,341.032 73.633 L 341.436 71.875 363.687 71.875 C 375.925 71.875,385.928 72.139,385.917 72.461 M166.520 146.094 C 168.127 156.621,169.630 166.208,169.860 167.397 L 170.279 169.561 152.526 169.351 L 134.773 169.141 129.545 148.828 C 126.670 137.656,124.295 128.070,124.268 127.526 C 124.229 126.746,128.405 126.580,143.908 126.744 L 163.598 126.953 166.520 146.094 M267.698 133.398 C 267.438 137.158,267.031 144.980,266.793 150.781 C 266.555 156.582,266.169 163.174,265.936 165.430 L 265.513 169.531 247.991 169.531 C 231.825 169.531,230.469 169.425,230.467 168.164 C 230.464 165.614,228.944 137.140,228.528 131.836 L 228.114 126.563 248.142 126.563 L 268.170 126.563 267.698 133.398 M319.857 128.711 C 319.628 129.893,318.127 139.473,316.520 150.000 L 313.598 169.141 295.855 169.351 L 278.111 169.561 278.526 164.272 C 278.943 158.960,280.464 130.486,280.467 127.930 C 280.469 126.663,281.938 126.563,300.371 126.563 L 320.273 126.563 319.857 128.711 M371.495 128.860 C 371.217 130.124,368.799 139.704,366.120 150.149 L 361.251 169.141 343.907 169.351 C 328.458 169.538,326.563 169.425,326.563 168.314 C 326.563 167.213,331.284 135.711,332.439 129.102 L 332.883 126.563 352.441 126.563 L 371.999 126.563 371.495 128.860 M172.248 183.789 C 173.395 190.350,178.125 221.896,178.125 222.987 C 178.125 224.065,176.296 224.218,163.477 224.215 L 148.828 224.211 143.532 203.316 C 140.619 191.824,138.246 182.158,138.258 181.836 C 138.271 181.514,145.824 181.250,155.043 181.250 L 171.804 181.250 172.248 183.789 M218.750 183.764 C 218.750 186.117,219.999 211.021,220.573 220.117 L 220.832 224.219 206.134 224.219 C 191.532 224.219,191.433 224.207,191.032 222.461 C 190.810 221.494,189.390 212.441,187.876 202.344 C 186.361 192.246,184.987 183.369,184.822 182.617 C 184.543 181.348,185.743 181.250,201.636 181.250 L 218.750 181.250 218.750 183.764 M264.856 184.570 C 264.863 186.396,264.451 196.064,263.941 206.055 L 263.014 224.219 248.339 224.219 L 233.665 224.219 233.277 221.680 C 233.063 220.283,232.687 214.219,232.440 208.203 C 232.192 202.188,231.772 193.662,231.505 189.258 L 231.020 181.250 247.932 181.250 L 264.844 181.250 264.856 184.570 M311.487 183.008 C 311.266 183.975,309.750 193.643,308.117 204.492 L 305.149 224.219 290.345 224.219 L 275.541 224.219 276.034 215.039 C 276.305 209.990,276.765 200.322,277.057 193.555 L 277.586 181.250 294.737 181.250 L 311.888 181.250 311.487 183.008 M357.807 182.227 C 357.760 190.778,349.303 211.769,344.044 216.386 C 338.540 221.218,320.800 226.530,318.350 224.079 C 318.117 223.846,319.342 214.478,321.073 203.262 C 322.803 192.045,324.219 182.504,324.219 182.059 C 324.219 181.526,329.958 181.250,341.016 181.250 C 353.935 181.250,357.811 181.475,357.807 182.227 M125.253 342.488 C 100.711 350.486,98.473 386.006,121.789 397.457 C 128.292 400.651,141.239 400.651,147.742 397.457 C 169.478 386.783,169.494 354.599,147.768 343.970 C 142.540 341.412,130.904 340.646,125.253 342.488 M326.035 342.488 C 301.492 350.486,299.254 386.006,322.571 397.457 C 329.073 400.651,342.020 400.651,348.523 397.457 C 370.259 386.783,370.275 354.599,348.549 343.970 C 343.321 341.412,331.685 340.646,326.035 342.488 M142.578 355.658 C 152.768 361.023,154.729 375.156,146.361 382.919 C 135.350 393.132,117.969 385.649,117.969 370.695 C 117.969 357.948,131.372 349.758,142.578 355.658 M343.359 355.658 C 353.549 361.023,355.510 375.156,347.142 382.919 C 336.132 393.132,318.750 385.649,318.750 370.695 C 318.750 357.948,332.153 349.758,343.359 355.658 M130.199 366.272 C 126.566 370.287,129.433 376.563,134.901 376.563 C 140.187 376.563,143.047 369.621,139.196 366.137 C 137.224 364.352,131.864 364.433,130.199 366.272 M330.980 366.272 C 327.347 370.287,330.214 376.563,335.683 376.563 C 340.968 376.563,343.828 369.621,339.978 366.137 C 338.006 364.352,332.645 364.433,330.980 366.272 " stroke="none" fill="#000000" fill-rule="evenodd"></path></g></svg>