<svg id="svg" xmlns="http://www.w3.org/2000/svg" xmlns:xlink="http://www.w3.org/1999/xlink" width="400" height="400" viewBox="0, 0, 400,400"><g id="svgg"><path id="path0" d="M17.096 1.075 C 10.624 3.396,5.594 7.841,2.153 14.280 L 0.391 17.578 0.391 189.844 L 0.391 362.109 2.708 366.293 C 5.663 371.628,10.718 376.076,16.125 378.099 C 20.325 379.670,21.645 379.687,137.212 379.688 L 254.054 379.688 260.425 384.273 C 278.567 397.328,283.354 400.000,288.609 400.000 L 293.475 400.000 307.089 390.920 C 371.861 347.719,401.280 307.589,399.802 264.453 C 397.895 208.818,332.104 178.552,292.438 215.061 L 289.172 218.067 283.063 212.942 C 261.812 195.118,231.203 193.640,208.203 209.329 C 205.912 210.892,204.894 210.927,162.500 210.937 C 116.672 210.947,115.114 211.059,110.856 214.642 C 104.288 220.169,104.833 231.810,111.896 236.848 L 114.453 238.672 149.489 238.890 C 182.259 239.095,184.490 239.196,183.992 240.453 C 181.102 247.753,180.186 253.975,180.142 266.602 L 180.096 279.688 148.498 279.688 C 118.014 279.688,116.780 279.745,113.517 281.325 C 105.747 285.086,103.689 296.559,109.622 303.033 C 113.952 307.756,114.145 307.777,154.049 307.795 C 188.602 307.812,190.543 307.887,190.970 309.232 C 192.893 315.290,206.822 335.160,216.401 345.508 L 222.005 351.563 125.065 351.563 L 28.125 351.563 28.125 189.453 L 28.125 27.344 149.595 27.344 L 271.064 27.344 271.274 85.413 L 271.484 143.482 273.737 146.435 C 280.822 155.723,295.265 153.296,298.481 142.277 C 299.037 140.372,299.228 119.881,299.067 79.297 L 298.828 19.141 296.801 14.844 C 294.352 9.651,289.491 4.642,284.527 2.197 L 280.859 0.391 150.391 0.226 C 45.123 0.093,19.376 0.257,17.096 1.075 M69.732 74.310 C 63.705 76.051,59.471 83.333,60.499 90.190 C 62.420 102.996,81.018 105.917,86.644 94.296 C 92.274 82.665,82.166 70.719,69.732 74.310 M115.356 74.577 C 104.368 78.495,102.856 94.065,112.907 99.784 L 116.016 101.554 172.717 101.363 L 229.419 101.172 232.289 98.983 C 241.498 91.958,238.679 77.354,227.515 74.253 C 222.733 72.925,119.150 73.224,115.356 74.577 M68.359 143.290 C 61.529 146.326,58.397 155.079,61.626 162.109 C 66.033 171.708,79.045 173.047,85.513 164.567 C 94.132 153.267,81.412 137.489,68.359 143.290 M112.686 144.198 C 102.502 150.302,104.734 166.195,116.246 169.552 C 118.233 170.132,136.309 170.322,173.886 170.159 L 228.631 169.922 231.429 168.004 C 240.328 161.905,240.014 149.168,230.836 143.970 L 227.734 142.213 171.875 142.208 L 116.016 142.202 112.686 144.198 M277.793 165.833 C 269.377 170.622,268.441 187.529,276.252 193.674 C 283.460 199.343,294.847 196.377,298.048 187.997 C 303.898 172.678,290.852 158.402,277.793 165.833 M70.050 211.859 C 60.892 214.389,57.171 226.906,63.450 234.057 C 74.489 246.630,93.680 234.232,86.763 218.997 C 84.085 213.099,76.811 209.992,70.050 211.859 M257.275 229.557 C 263.401 232.573,271.113 240.475,274.487 247.193 C 282.636 263.420,295.678 263.370,303.902 247.080 C 324.870 205.551,382.844 235.387,370.298 281.250 C 363.497 306.111,337.144 336.061,299.478 361.737 C 287.138 370.149,289.477 370.067,278.852 362.461 C 216.737 317.997,191.997 268.020,218.011 239.556 C 229.518 226.965,244.342 223.190,257.275 229.557 M68.359 280.790 C 58.827 285.027,57.609 299.475,66.298 305.248 C 80.085 314.409,95.805 296.152,84.521 284.083 C 80.587 279.876,73.613 278.455,68.359 280.790 " stroke="none" fill="#000000" fill-rule="evenodd"></path></g></svg>