<svg id="svg" xmlns="http://www.w3.org/2000/svg" xmlns:xlink="http://www.w3.org/1999/xlink" width="400" height="400" viewBox="0, 0, 400,400"><g id="svgg"><path id="path0" d="M159.590 37.070 C 119.066 46.280,115.979 105.962,153.866 147.718 C 168.252 163.572,193.065 182.031,199.992 182.031 C 209.677 182.031,242.994 154.333,255.953 135.507 C 269.385 115.996,275.637 89.589,271.475 69.944 C 264.587 37.423,228.431 25.364,203.912 47.409 L 200.000 50.926 196.088 47.409 C 185.744 38.109,172.067 34.234,159.590 37.070 M95.397 85.180 C 82.281 87.909,71.090 98.703,67.478 112.109 C 66.149 117.038,65.917 354.352,67.235 360.069 C 70.189 372.883,80.903 383.629,94.173 387.085 C 101.113 388.893,298.887 388.893,305.827 387.085 C 319.057 383.639,329.005 373.806,332.485 360.738 C 334.078 354.753,334.114 118.015,332.522 112.109 C 326.875 91.155,299.924 76.639,288.281 88.281 C 280.254 96.309,284.892 107.823,296.819 109.473 C 301.538 110.125,304.217 111.769,306.836 115.617 L 308.594 118.200 308.594 236.142 L 308.594 354.084 306.887 357.120 C 303.146 363.777,311.755 363.281,200.000 363.281 C 88.245 363.281,96.854 363.777,93.113 357.120 L 91.406 354.084 91.406 236.142 L 91.406 118.200 93.164 115.617 C 95.815 111.723,98.475 110.122,103.412 109.452 C 115.742 107.779,119.925 94.210,110.361 86.914 C 107.323 84.597,101.462 83.918,95.397 85.180 M123.828 206.030 C 118.913 207.224,114.832 212.909,114.857 218.530 C 114.911 231.150,132.853 235.042,138.377 223.631 C 143.076 213.923,134.424 203.455,123.828 206.030 M160.132 206.194 C 149.875 209.362,148.022 222.662,156.994 228.708 L 159.606 230.469 217.901 230.469 C 283.530 230.469,279.785 230.809,283.386 224.528 C 286.630 218.869,285.243 212.090,280.027 208.111 L 277.076 205.859 219.592 205.721 C 187.977 205.645,161.219 205.858,160.132 206.194 M121.921 255.620 C 117.252 258.045,115.433 260.745,115.073 265.788 C 114.102 279.407,132.300 284.274,138.365 272.017 C 143.645 261.347,132.428 250.163,121.921 255.620 M159.746 254.735 C 149.687 257.661,148.428 272.881,157.843 277.750 C 161.676 279.732,275.158 279.459,278.918 277.458 C 287.540 272.870,287.071 260.243,278.109 255.664 L 274.669 253.906 218.389 253.977 C 187.435 254.015,161.046 254.357,159.746 254.735 M123.190 303.450 C 110.113 308.226,113.070 327.344,126.886 327.344 C 132.207 327.344,135.828 325.316,138.066 321.084 C 143.460 310.884,133.892 299.542,123.190 303.450 M159.746 303.162 C 151.875 305.486,148.728 316.287,153.978 322.960 C 157.568 327.524,154.909 327.344,218.530 327.344 L 276.981 327.344 279.785 325.438 C 287.321 320.317,286.807 308.999,278.825 304.297 C 275.926 302.589,165.260 301.535,159.746 303.162 " stroke="none" fill="#000000" fill-rule="evenodd"></path></g></svg>