<svg id="svg" xmlns="http://www.w3.org/2000/svg" xmlns:xlink="http://www.w3.org/1999/xlink" width="400" height="400" viewBox="0, 0, 400,400"><g id="svgg"><path id="path0" d="M175.000 1.154 C 12.258 22.499,-58.095 219.613,54.824 337.860 C 166.751 455.067,364.326 398.163,396.498 239.453 C 423.489 106.301,309.374 -16.470,175.000 1.154 M214.240 19.914 C 273.853 23.270,331.800 61.916,360.575 117.506 C 422.414 236.975,334.744 380.598,200.000 380.565 C 65.425 380.531,-21.850 238.071,39.125 117.969 C 69.718 57.711,139.883 15.373,202.734 19.245 C 204.883 19.378,210.061 19.678,214.240 19.914 M132.813 109.662 C 91.359 119.324,71.641 162.562,89.440 204.767 C 102.369 235.422,136.995 269.767,186.043 300.586 C 200.848 309.889,200.178 310.000,223.828 294.283 C 301.458 242.693,331.955 189.532,310.312 143.528 C 292.354 105.358,240.119 96.852,204.165 126.244 C 200.634 129.131,199.123 129.502,197.731 127.824 C 187.310 115.268,151.612 105.281,132.813 109.662 M163.206 130.760 C 173.382 134.351,180.728 138.904,190.046 147.393 C 197.845 154.499,202.180 154.400,210.426 146.927 C 244.677 115.888,288.613 124.607,296.533 164.016 C 303.044 196.417,273.164 237.482,214.591 276.630 C 206.932 281.749,200.366 285.938,200.000 285.938 C 199.634 285.938,193.068 281.749,185.409 276.630 C 142.328 247.836,110.951 213.532,104.242 187.891 C 94.225 149.609,126.900 117.949,163.206 130.760 " stroke="none" fill="#000000" fill-rule="evenodd"></path></g></svg>